<svg xmlns="http://www.w3.org/2000/svg" viewBox="-32 341.7 293 112"><path d="M60.6 347.7H3.3l-28.6 49.6 28.6 49.6h57.3l28.6-49.6-28.6-49.6zm-38 97.8h-7.1v-44.8h7.1v44.8zm-4.8-65.9L12 397.4H5.4l7.9-23.1-7.4-21.8h7.3l5.3 16.5 5.4-16.5h6.5L23 374.3l7.9 23.1h-7.4l-5.7-17.8zm25.5 65.9H32.8l-6.9-44.9H33l5.4 36.6 5.4-36.6h6.5l-7 44.9zm7.8-48.2l-5.8-17.8-5.8 17.8h-6.6l7.9-23.1-7.4-21.8h7.3l5.3 16.5 5.4-16.5h6.5l-7.4 21.8 7.9 23.1h-7.3zM188 408.7c-.8 0-1.4.5-1.4 1.6v9c0 1.2.5 1.6 1.4 1.6.8 0 1.4-.5 1.4-1.6v-9c0-1.1-.6-1.6-1.4-1.6zm36.3 9.2h2.5l-1.3-8.4-1.2 8.4zm-63.4-9.2c-.8 0-1.4.5-1.4 1.6v9c0 1.2.5 1.6 1.4 1.6.8 0 1.4-.5 1.4-1.6v-9c0-1.1-.5-1.6-1.4-1.6zm25.6-16.9h4.1l-2-13.6-2.1 13.6zm68.3-27.4H75.3l19 32.9-19.5 33.8h180L239 397.4l15.8-33zm-146 44.5h-2.7v14.3h-2.6v-14.3h-2.7v-2.4h8.1v2.4h-.1zm-2.1-8.2c-4.2 0-6.3-2.5-6.3-6.8v-1.7h4v1.9c0 1.9.8 2.6 2.2 2.6 1.3 0 2.2-.7 2.2-2.6 0-5.5-8.3-6.6-8.3-14.3 0-4.3 2.1-6.8 6.2-6.8s6.2 2.5 6.2 6.8v.8h-4v-1.1c0-1.9-.8-2.7-2.1-2.7s-2.1.7-2.1 2.7c0 5.5 8.3 6.6 8.3 14.3 0 4.4-2.1 6.9-6.3 6.9zm15.2 8.2h-4.5v4.7h3.6v2.4h-3.6v4.9h4.5v2.4h-7.2v-16.7h7.2v2.3zm5.1-31.6h-7.3v7.5h5.8v3.8h-5.8v7.9h7.3v3.8h-11.5v-26.9H127v3.9zm8.9 34.9h-2.5v-1.8c0-1.2-.5-1.6-1.4-1.6-.8 0-1.4.5-1.4 1.6v9c0 1.2.5 1.6 1.4 1.6.8 0 1.4-.4 1.4-1.6V417h2.5v2.2c0 2.7-1.3 4.2-3.9 4.2s-3.9-1.5-3.9-4.2v-8.7c0-2.7 1.3-4.2 3.9-4.2s3.9 1.5 3.9 4.2v1.7zm.5-11.8l-3.2-19v19h-3.7v-26.9h5.9l3.1 19.1 2.9-19.1h5.9v26.9h-4v-19.3l-2.9 19.3h-4zm14.1 22.8h-2.7l-3.3-12.1v12.1h-2.4v-16.7h3.3l2.7 10v-10h2.3l.1 16.7zm2.7-22.8h-3.9l4.3-26.9h6.2l4.3 26.9h-4.3l-.7-4.9h-5.2l-.7 4.9zm11.7 18.8c0 2.7-1.4 4.2-4 4.2s-4-1.5-4-4.2v-8.7c0-2.7 1.4-4.2 4-4.2s4 1.5 4 4.2v8.7zm13.4 4h-6.9v-16.7h2.6v14.3h4.3v2.4zm1.2-22.8h-4.3l-5.3-19.5v19.5H166v-26.9h5.3l4.3 16.1v-16.1h3.8v26.9h.1zm12.5 18.8c0 2.7-1.4 4.2-4 4.2s-4-1.5-4-4.2v-8.7c0-2.7 1.4-4.2 4-4.2s4 1.5 4 4.2v8.7zm-.1-18.8l-.7-4.9H186l-.7 4.9h-3.9l4.3-26.9h6.2l4.3 26.9h-4.3zm14.2 11.8h-2.5v-1.8c0-1.2-.5-1.6-1.4-1.6-.8 0-1.4.5-1.4 1.6v9c0 1.2.5 1.6 1.4 1.6.8 0 1.4-.4 1.4-1.6v-3.1h-1.2v-2.4h3.7v5.3c0 2.7-1.3 4.2-3.9 4.2s-3.9-1.5-3.9-4.2v-8.7c0-2.7 1.3-4.2 3.9-4.2s3.9 1.5 3.9 4.2v1.7zm9.1 11h-2.6v-16.7h2.6v16.7zm1.9-29.5c0 4.3-2.1 6.7-6.3 6.7h-6.7v-26.9h6.7c4.2 0 6.3 2.3 6.3 6.7v13.5zm10.6 29.5l-.5-3H224l-.5 3h-2.4l2.7-16.7h3.8l2.7 16.7h-2.6zm3.7-45.9h-7.3v7.5h5.8v3.8h-5.8v7.9h7.3v3.8h-11.5v-26.9h11.5v3.9zm-20.6 0h-2.4v19.2h2.4c1.3 0 2.2-.7 2.2-2.6v-14c-.1-1.9-.9-2.6-2.2-2.6zm-56.3 14.5h4.1l-2-13.6-2.1 13.6z" fill="#fff"/></svg>