<?xml version="1.0" encoding="utf-8"?>
<!-- Generator: Adobe Illustrator 19.0.0, SVG Export Plug-In . SVG Version: 6.00 Build 0)  -->
<svg version="1.1" id="Layer_1" xmlns="http://www.w3.org/2000/svg" xmlns:xlink="http://www.w3.org/1999/xlink" x="0px" y="0px"
	 viewBox="-32 341.7 293 112" style="enable-background:new -32 341.7 293 112;" xml:space="preserve">
<style type="text/css">
	.st0{fill:#FFFFFF;}
</style>
<path class="st0" d="M60.6,347.7H3.3l-28.6,49.6l28.6,49.6h57.3l28.6-49.6L60.6,347.7z M22.6,445.5h-7.1v-44.8h7.1V445.5z
	 M17.8,379.6L12,397.4H5.4l7.9-23.1l-7.4-21.8h7.3l5.3,16.5l5.4-16.5h6.5L23,374.3l7.9,23.1h-7.4C23.5,397.4,17.8,379.6,17.8,379.6z
	 M43.3,445.5H32.8l-6.9-44.9H33l5.4,36.6l5.4-36.6h6.5L43.3,445.5L43.3,445.5z M51.1,397.3l-5.8-17.8l-5.8,17.8h-6.6l7.9-23.1
	l-7.4-21.8h7.3l5.3,16.5l5.4-16.5h6.5l-7.4,21.8l7.9,23.1L51.1,397.3L51.1,397.3z M188,408.7c-0.8,0-1.4,0.5-1.4,1.6v9
	c0,1.2,0.5,1.6,1.4,1.6c0.8,0,1.4-0.5,1.4-1.6v-9C189.4,409.2,188.8,408.7,188,408.7z M224.3,417.9h2.5l-1.3-8.4L224.3,417.9z
	 M160.9,408.7c-0.8,0-1.4,0.5-1.4,1.6v9c0,1.2,0.5,1.6,1.4,1.6c0.8,0,1.4-0.5,1.4-1.6v-9C162.3,409.2,161.8,408.7,160.9,408.7z
	 M186.5,391.8h4.1l-2-13.6L186.5,391.8z M254.8,364.4H75.3l19,32.9l-19.5,33.8h180L239,397.4L254.8,364.4z M108.8,408.9h-2.7v14.3
	h-2.6v-14.3h-2.7v-2.4h8.1v2.4H108.8z M106.7,400.7c-4.2,0-6.3-2.5-6.3-6.8v-1.7h4v1.9c0,1.9,0.8,2.6,2.2,2.6c1.3,0,2.2-0.7,2.2-2.6
	c0-5.5-8.3-6.6-8.3-14.3c0-4.3,2.1-6.8,6.2-6.8s6.2,2.5,6.2,6.8v0.8h-4v-1.1c0-1.9-0.8-2.7-2.1-2.7s-2.1,0.7-2.1,2.7
	c0,5.5,8.3,6.6,8.3,14.3C113,398.2,110.9,400.7,106.7,400.7L106.7,400.7z M121.9,408.9h-4.5v4.7h3.6v2.4h-3.6v4.9h4.5v2.4h-7.2
	v-16.7h7.2V408.9L121.9,408.9z M127,377.3h-7.3v7.5h5.8v3.8h-5.8v7.9h7.3v3.8h-11.5v-26.9H127L127,377.3L127,377.3z M135.9,412.2
	h-2.5v-1.8c0-1.2-0.5-1.6-1.4-1.6c-0.8,0-1.4,0.5-1.4,1.6v9c0,1.2,0.5,1.6,1.4,1.6c0.8,0,1.4-0.4,1.4-1.6V417h2.5v2.2
	c0,2.7-1.3,4.2-3.9,4.2s-3.9-1.5-3.9-4.2v-8.7c0-2.7,1.3-4.2,3.9-4.2s3.9,1.5,3.9,4.2V412.2L135.9,412.2z M136.4,400.4l-3.2-19v19
	h-3.7v-26.9h5.9l3.1,19.1l2.9-19.1h5.9v26.9h-4v-19.3l-2.9,19.3H136.4z M150.5,423.2h-2.7l-3.3-12.1v12.1h-2.4v-16.7h3.3l2.7,10v-10
	h2.3L150.5,423.2L150.5,423.2z M153.2,400.4h-3.9l4.3-26.9h6.2l4.3,26.9h-4.3l-0.7-4.9h-5.2L153.2,400.4z M164.9,419.2
	c0,2.7-1.4,4.2-4,4.2s-4-1.5-4-4.2v-8.7c0-2.7,1.4-4.2,4-4.2s4,1.5,4,4.2V419.2z M178.3,423.2h-6.9v-16.7h2.6v14.3h4.3V423.2
	L178.3,423.2z M179.5,400.4h-4.3l-5.3-19.5v19.5H166v-26.9h5.3l4.3,16.1v-16.1h3.8v26.9H179.5z M192,419.2c0,2.7-1.4,4.2-4,4.2
	s-4-1.5-4-4.2v-8.7c0-2.7,1.4-4.2,4-4.2s4,1.5,4,4.2V419.2z M191.9,400.4l-0.7-4.9H186l-0.7,4.9h-3.9l4.3-26.9h6.2l4.3,26.9H191.9z
	 M206.1,412.2h-2.5v-1.8c0-1.2-0.5-1.6-1.4-1.6c-0.8,0-1.4,0.5-1.4,1.6v9c0,1.2,0.5,1.6,1.4,1.6c0.8,0,1.4-0.4,1.4-1.6v-3.1h-1.2
	v-2.4h3.7v5.3c0,2.7-1.3,4.2-3.9,4.2s-3.9-1.5-3.9-4.2v-8.7c0-2.7,1.3-4.2,3.9-4.2s3.9,1.5,3.9,4.2V412.2z M215.2,423.2h-2.6v-16.7
	h2.6V423.2z M217.1,393.7c0,4.3-2.1,6.7-6.3,6.7h-6.7v-26.9h6.7c4.2,0,6.3,2.3,6.3,6.7V393.7z M227.7,423.2l-0.5-3H224l-0.5,3h-2.4
	l2.7-16.7h3.8l2.7,16.7H227.7z M231.4,377.3h-7.3v7.5h5.8v3.8h-5.8v7.9h7.3v3.8h-11.5v-26.9h11.5V377.3L231.4,377.3z M210.8,377.3
	h-2.4v19.2h2.4c1.3,0,2.2-0.7,2.2-2.6v-14C212.9,378,212.1,377.3,210.8,377.3z M154.5,391.8h4.1l-2-13.6L154.5,391.8z"/>
</svg>
